<?xml version="1.0" standalone="no"?>
<!DOCTYPE svg PUBLIC "-//W3C//DTD SVG 1.1//EN"
"http://www.w3.org/Graphics/SVG/1.1/DTD/svg11.dtd">

<svg width="277" height="186" view_box="0 0 277 186"
xmlns="http://www.w3.org/2000/svg"
xmlns:link="http://www.w3.org/1999/xlink">\n\n<desc>Généré par Mocodo 2.3.7 le Wed, 26 Feb 2020 00:42:35</desc>

<rect id="frame" x="0" y="0" width="277" height="186" fill="none" stroke="none" stroke-width="0"/>

<!-- Association CONTIENT -->
<line x1="148" y1="143" x2="48" y2="143" stroke="#726f83" stroke-width="2"/>
<text x="92" y="160.0" fill="#726f83" font-family="Verdana" font-size="12">0,N</text>
<line x1="48" y1="51" x2="48" y2="143" stroke="#726f83" stroke-width="2"/>
<text x="53.0" y="110" fill="#726f83" font-family="Verdana" font-size="12">1,1</text>
<g id="association-CONTIENT">
	<path d="M 73 118 a 14 14 90 0 1 14 14 V 143 h -78 V 132 a 14 14 90 0 1 14 -14" fill="#b2bba4" stroke="#b2bba4" stroke-width="0"/>
	<path d="M 87 143.0 v 11 a 14 14 90 0 1 -14 14 H 23 a 14 14 90 0 1 -14 -14 V 143.0 H 78" fill="#ccd6ba" stroke="#ccd6ba" stroke-width="0"/>
	<rect x="9" y="118" width="78" height="50" fill="none" rx="14" stroke="#85956b" stroke-width="2"/>
	<line x1="9" y1="143" x2="87" y2="143" stroke="#85956b" stroke-width="1"/>
	<text x="16" y="135.7" fill="#27360c" font-family="Verdana" font-size="12">CONTIENT</text>
</g>

<!-- Association PORTER -->
<line x1="48" y1="51" x2="148" y2="51" stroke="#726f83" stroke-width="2"/>
<text x="82" y="68.0" fill="#726f83" font-family="Verdana" font-size="12">0,N</text>
<line x1="240" y1="51" x2="148" y2="51" stroke="#726f83" stroke-width="2"/>
<text x="185" y="68.0" fill="#726f83" font-family="Verdana" font-size="12">0,N</text>
<g id="association-PORTER">
	<path d="M 166 26 a 14 14 90 0 1 14 14 V 51 h -64 V 40 a 14 14 90 0 1 14 -14" fill="#b2bba4" stroke="#b2bba4" stroke-width="0"/>
	<path d="M 180 51.0 v 11 a 14 14 90 0 1 -14 14 H 130 a 14 14 90 0 1 -14 -14 V 51.0 H 64" fill="#ccd6ba" stroke="#ccd6ba" stroke-width="0"/>
	<rect x="116" y="26" width="64" height="50" fill="none" rx="14" stroke="#85956b" stroke-width="2"/>
	<line x1="116" y1="51" x2="180" y2="51" stroke="#85956b" stroke-width="1"/>
	<text x="123" y="43.7" fill="#27360c" font-family="Verdana" font-size="12">PORTER</text>
</g>

<!-- Entity Liste -->
<g id="entity-Liste">
	<g id="frame-Liste">
		<rect x="119" y="109" width="58" height="25" fill="#97b8ff" stroke="#97b8ff" stroke-width="0"/>
		<rect x="119" y="134.0" width="58" height="43" fill="#c0d4ff" stroke="#c0d4ff" stroke-width="0"/>
		<rect x="119" y="109" width="58" height="68" fill="none" stroke="#578dff" stroke-width="2"/>
		<line x1="119" y1="134" x2="177" y2="134" stroke="#578dff" stroke-width="1"/>
	</g>
	<text x="133" y="126.7" fill="#131114" font-family="Verdana" font-size="12">Liste</text>
	<text x="124" y="151.8" fill="#3e3c42" font-family="Verdana" font-size="12">nom</text>
	<line x1="124" y1="154" x2="152" y2="154" stroke="#3e3c42" stroke-width="1"/>
	<text x="124" y="168.8" fill="#3e3c42" font-family="Verdana" font-size="12">position</text>
</g>

<!-- Entity Carte -->
<g id="entity-Carte">
	<g id="frame-Carte">
		<rect x="19" y="9" width="58" height="25" fill="#97b8ff" stroke="#97b8ff" stroke-width="0"/>
		<rect x="19" y="34.0" width="58" height="59" fill="#c0d4ff" stroke="#c0d4ff" stroke-width="0"/>
		<rect x="19" y="9" width="58" height="84" fill="none" stroke="#578dff" stroke-width="2"/>
		<line x1="19" y1="34" x2="77" y2="34" stroke="#578dff" stroke-width="1"/>
	</g>
	<text x="31" y="26.7" fill="#131114" font-family="Verdana" font-size="12">Carte</text>
	<text x="24" y="51.8" fill="#3e3c42" font-family="Verdana" font-size="12">titre</text>
	<line x1="24" y1="54" x2="50" y2="54" stroke="#3e3c42" stroke-width="1"/>
	<text x="24" y="68.8" fill="#3e3c42" font-family="Verdana" font-size="12">position</text>
	<text x="24" y="85.8" fill="#3e3c42" font-family="Verdana" font-size="12">couleur</text>
</g>

<!-- Entity Label -->
<g id="entity-Label">
	<g id="frame-Label">
		<rect x="212" y="17" width="56" height="25" fill="#97b8ff" stroke="#97b8ff" stroke-width="0"/>
		<rect x="212" y="42.0" width="56" height="43" fill="#c0d4ff" stroke="#c0d4ff" stroke-width="0"/>
		<rect x="212" y="17" width="56" height="68" fill="none" stroke="#578dff" stroke-width="2"/>
		<line x1="212" y1="42" x2="268" y2="42" stroke="#578dff" stroke-width="1"/>
	</g>
	<text x="223" y="34.7" fill="#131114" font-family="Verdana" font-size="12">Label</text>
	<text x="217" y="59.8" fill="#3e3c42" font-family="Verdana" font-size="12">nom</text>
	<line x1="217" y1="62" x2="245" y2="62" stroke="#3e3c42" stroke-width="1"/>
	<text x="217" y="76.8" fill="#3e3c42" font-family="Verdana" font-size="12">couleur</text>
</g>
</svg>